<svg width="100" height="100" viewBox="0 0 100 100" fill="none" xmlns="http://www.w3.org/2000/svg">
<g clip-path="url(#clip0_126_102)">
<path d="M43.5781 89.9219L34.0469 87.1562C33.0469 86.875 32.4844 85.8281 32.7656 84.8281L54.0938 11.3594C54.375 10.3594 55.4219 9.79686 56.4219 10.0781L65.9531 12.8437C66.9531 13.125 67.5156 14.1719 67.2344 15.1719L45.9062 88.6406C45.6094 89.6406 44.5781 90.2187 43.5781 89.9219V89.9219ZM25.7656 72.3906L32.5625 65.1406C33.2812 64.375 33.2344 63.1562 32.4375 62.4531L18.2813 50L32.4375 37.5469C33.2344 36.8437 33.2969 35.625 32.5625 34.8594L25.7656 27.6094C25.0625 26.8594 23.875 26.8125 23.1094 27.5312L0.59375 48.625C-0.203125 49.3594 -0.203125 50.625 0.59375 51.3594L23.1094 72.4687C23.875 73.1875 25.0625 73.1562 25.7656 72.3906V72.3906ZM76.8906 72.4844L99.4063 51.375C100.203 50.6406 100.203 49.375 99.4063 48.6406L76.8906 27.5156C76.1406 26.8125 74.9531 26.8437 74.2344 27.5937L67.4375 34.8437C66.7188 35.6094 66.7656 36.8281 67.5625 37.5312L81.7188 50L67.5625 62.4531C66.7656 63.1562 66.7031 64.375 67.4375 65.1406L74.2344 72.3906C74.9375 73.1562 76.125 73.1875 76.8906 72.4844V72.4844Z" fill="#00689D"/>
</g>
<defs>
<clipPath id="clip0_126_102">
<rect width="100" height="100" fill="white"/>
</clipPath>
</defs>
</svg>
